<svg xmlns="http://www.w3.org/2000/svg" viewBox="0 0 356.49 417.07"><defs><style>.cls-1{fill:#a22430;}.cls-2{fill:#f0f1f1;}.cls-3{fill:#ecbdbb;}.cls-4{fill:#ce4239;}.cls-5{fill:#8c202b;}.cls-6{fill:#871e29;}.cls-7{fill:#e5e6e7;}.cls-8{fill:#a5a7a9;}.cls-9{fill:#f7f7f7;}.cls-10{fill:#d77676;}.cls-11{fill:#d73434;}.cls-12{fill:#f68d88;}.cls-13{fill:#b08d4f;}.cls-14{fill:#fdb714;}.cls-15{fill:#e0a126;}.cls-16{fill:#404b7c;}.cls-17{fill:#e7ae4a;}.cls-18{fill:#ba5757;}.cls-19{fill:#fff;}</style></defs><title>deliver</title><g id="LEFT_FEET" data-name="LEFT FEET"><path class="cls-1" d="M138.14,324.54s-23.14-20.4-28.87-25.3.58-14.11,5.84-12.38,34.24,20.17,35.62,22.92-2.5,12.26-5.9,14.52A6.44,6.44,0,0,1,138.14,324.54Z" transform="translate(-65.38 -29.19)"/><path class="cls-2" d="M138.53,321.34a.43.43,0,0,1-.26-.09l-1.9-1.51,0,0c-5.17-5.35-12.6-10.86-17.52-14.51-5.15-3.82-5.6-4.23-5.35-4.79.05-.1.1-.23.16-.37a7.94,7.94,0,0,1,3.08-4,.41.41,0,0,1,.44,0c14.75,8.5,25.6,21.33,25.71,21.45a.4.4,0,0,1-.06.59l-4,3.16A.43.43,0,0,1,138.53,321.34Zm-1.62-2.23,1.62,1.29,3.41-2.69c-1.77-2-11.78-13.15-25-20.82a7.09,7.09,0,0,0-2.57,3.45c0,.09-.07.17-.1.25a52.23,52.23,0,0,0,5,3.94C124.24,308.19,131.69,313.72,136.91,319.11Z" transform="translate(-65.38 -29.19)"/><path class="cls-3" d="M151.49,334l-9.81,3.52L139,329.23l-3.28-10.16c2.56-4.05,7.14-1.92,7.14-1.92l6.64,13Z" transform="translate(-65.38 -29.19)"/><path class="cls-1" d="M151.49,334l-9.81,3.52L139,329.23a34,34,0,0,1,10.5.87Z" transform="translate(-65.38 -29.19)"/><path class="cls-4" d="M139.6,353l-4-12.48s5.28-9.12,13-9.12S159,333.52,159,333.52l5.12,11.2a17,17,0,0,1-11.51,7.36A52.51,52.51,0,0,1,139.6,353Z" transform="translate(-65.38 -29.19)"/><path class="cls-1" d="M326.48,390.84s-6.65,8.24-16,17.91c-2.14,2.2-4.41,4.48-6.78,6.75-8.88,8.52-92.2,37.32-115.85,29.39a15.57,15.57,0,0,1-2-.84c-9.5-4.9-19.52-25.13-27.53-45.4-9.25-23.42-15.82-46.89-15.82-46.89s4.64-12,17.59-7.68c0,0,18.41,26.92,31.63,44.08,5.43,7,10,12.45,12,13.66,2.79,1.65,13.89-2.48,26.25-8.08,18.83-8.51,40.61-20.39,40.61-20.39l11.29,3.53Z" transform="translate(-65.38 -29.19)"/><path class="cls-5" d="M326.48,390.84s-6.65,8.24-16,17.91c-19-9.89-36.45-29.89-36.45-29.89s3-.83,7.87-2Z" transform="translate(-65.38 -29.19)"/><path class="cls-6" d="M230,393.74l-42.15,51.15a15.57,15.57,0,0,1-2-.84c-9.5-4.9-19.52-25.13-27.53-45.4l33.4-10.49c5.43,7,10,12.45,12,13.66C206.53,403.47,217.63,399.34,230,393.74Z" transform="translate(-65.38 -29.19)"/><path class="cls-7" d="M303.39,410.71a.39.39,0,0,1-.35-.2c-4.29-7.42,4.49-14.54,4.58-14.61a.41.41,0,0,1,.51.65c-.08.06-8.31,6.74-4.38,13.54a.41.41,0,0,1-.15.57A.38.38,0,0,1,303.39,410.71Z" transform="translate(-65.38 -29.19)"/><path class="cls-2" d="M265.05,409.67c-4.93,0-10.42-2.47-10.7-2.6a.41.41,0,0,1-.2-.55.41.41,0,0,1,.54-.2c.08,0,7.9,3.55,13,2.22,7.87-2.07,29-13.68,29.18-13.8a.42.42,0,0,1,.4.73c-.87.48-21.4,11.77-29.37,13.86A10.92,10.92,0,0,1,265.05,409.67Z" transform="translate(-65.38 -29.19)"/><path class="cls-2" d="M201.08,421.11H201c-12.08-2.46-39.88-51.35-48.91-70.39a.41.41,0,0,1,.74-.36c10.71,22.58,37.47,67.73,48.34,69.94a.42.42,0,0,1,.32.49A.41.41,0,0,1,201.08,421.11Z" transform="translate(-65.38 -29.19)"/></g><g id="RIGHT_FEET" data-name="RIGHT FEET"><path class="cls-1" d="M104.42,318.06S76.25,305.5,69.31,302.53,65.65,288.88,71.19,289s38.7,9,40.84,11.25,1.28,12.44-1.29,15.62A6.48,6.48,0,0,1,104.42,318.06Z" transform="translate(-65.38 -29.19)"/><path class="cls-2" d="M103.72,314.9l-.15,0L101.3,314l0,0c-6.53-3.56-15.27-6.6-21-8.61-6.06-2.11-6.61-2.36-6.54-3a4.07,4.07,0,0,0,0-.41,7.9,7.9,0,0,1,1.76-4.71.41.41,0,0,1,.41-.14c16.62,3.7,30.81,12.71,30.95,12.8a.43.43,0,0,1,.18.26.44.44,0,0,1-.06.32l-2.88,4.21A.41.41,0,0,1,103.72,314.9Zm-2.1-1.67,1.94.75L106,310.4c-2.29-1.41-15.17-9-30.07-12.41a7.09,7.09,0,0,0-1.42,4.06c0,.09,0,.18,0,.27a56.09,56.09,0,0,0,6,2.26C86.27,306.6,95,309.65,101.62,313.23Z" transform="translate(-65.38 -29.19)"/><path class="cls-3" d="M119.64,325.49l-9,5.21-3.41-6.37-5.75-10.72c1.8-4.44,6.69-3.16,6.69-3.16l9,11.79Z" transform="translate(-65.38 -29.19)"/><path class="cls-1" d="M117.16,322.24l2.48,3.25-9,5.21-3.41-6.37A12.84,12.84,0,0,1,117.16,322.24Z" transform="translate(-65.38 -29.19)"/><path class="cls-4" d="M111.33,346.34l-6.15-11.57s3.56-9.91,11.12-11.28,10.6.19,10.6.19l7,10.11a17,17,0,0,1-10,9.29A52.78,52.78,0,0,1,111.33,346.34Z" transform="translate(-65.38 -29.19)"/><path class="cls-1" d="M298.57,350.61s-3,28.71-9.84,39.38c-17.49,13.27-93.65,44.4-115.68,37.66s-59.11-83.09-59.11-83.09,2.43-12.63,15.94-10.69c0,0,44.12,43.47,51.79,46.31,4.16,1.54,21.54-7.47,38.34-18.84,15.83-21.69,28.63-20.19,28.63-20.19Z" transform="translate(-65.38 -29.19)"/><path class="cls-8" d="M180.6,428.94a.41.41,0,0,1,0-.82c13.15-.05,33.58-5.11,57.53-14.25,20.07-7.66,39.84-17.17,50.37-24.23a.42.42,0,0,1,.57.12.41.41,0,0,1-.11.57c-10.58,7.09-30.42,16.63-50.53,24.31-13.93,5.31-40,14.23-57.83,14.3Z" transform="translate(-65.38 -29.19)"/><path class="cls-8" d="M181.67,380.59a.32.32,0,0,1-.14,0c-4.45-1.64-20.79-16.58-33.72-28.83a.41.41,0,0,1,0-.58.4.4,0,0,1,.58,0c18.47,17.49,30,27.4,33.44,28.66a.41.41,0,0,1-.14.8Z" transform="translate(-65.38 -29.19)"/><path class="cls-2" d="M245,382.71c-4.86,0-10.39-2.66-10.68-2.8a.41.41,0,0,1-.19-.55.41.41,0,0,1,.55-.19c.08,0,8.53,4.09,13.4,2.21,5.92-2.3,21-13.61,21.14-13.72a.4.4,0,0,1,.57.08.41.41,0,0,1-.08.58c-.62.47-15.3,11.49-21.34,13.83A9.28,9.28,0,0,1,245,382.71Z" transform="translate(-65.38 -29.19)"/><path class="cls-2" d="M183.4,402.39c-12.78,0-48.45-44.19-60.2-60.57a.41.41,0,1,1,.67-.48c15,20.89,49.07,61.36,60,60.2,24-2.54,75.92-44.15,76.44-44.57a.41.41,0,0,1,.52.64c-.13.1-13.25,10.65-29.19,21.38-21.43,14.43-37.48,22.29-47.68,23.37A4.58,4.58,0,0,1,183.4,402.39Z" transform="translate(-65.38 -29.19)"/></g><g id="UPPER_LEFT_ARM" data-name="UPPER LEFT ARM"><path class="cls-9" d="M378.52,265.86s34.34,35.62,41.8,58.22-22.18,19.84-55.24-15.78Z" transform="translate(-65.38 -29.19)"/></g><g id="PARACHUTE"><path class="cls-1" d="M150.36,145.28c9.91,39.6,31.93,82.39,40.43,98.08-26.93,6.11-58.24,9.43-94.63,8.74C96.16,252.1,106.66,191.54,150.36,145.28Z" transform="translate(-65.38 -29.19)"/><path class="cls-10" d="M354.65,91.51s-4.85,36.74-34.82,75.09c-16.1-22.12-44.77-56.41-70.72-79.38C277.91,80.18,315.32,82,354.65,91.51Z" transform="translate(-65.38 -29.19)"/><path class="cls-11" d="M319.83,166.6c-23.8,30.43-63.42,61.88-129,76.76-8.5-15.69-30.52-58.48-40.43-98.08,23.55-24.93,55.66-47.53,98.75-58.06C275.06,110.19,303.73,144.48,319.83,166.6Z" transform="translate(-65.38 -29.19)"/><path class="cls-12" d="M287.43,339.56a.41.41,0,0,1-.19-.05L96.39,244.8a.43.43,0,0,1-.19-.56.42.42,0,0,1,.56-.18l190.85,94.72a.41.41,0,0,1,.19.55A.43.43,0,0,1,287.43,339.56Z" transform="translate(-65.38 -29.19)"/><path class="cls-12" d="M359.88,298.29a.41.41,0,0,1-.41-.39L346.65,88.34a.42.42,0,0,1,.39-.44.4.4,0,0,1,.43.39l12.82,209.56a.41.41,0,0,1-.38.44Z" transform="translate(-65.38 -29.19)"/><path class="cls-12" d="M301.34,317.49a.38.38,0,0,1-.25-.09L123.51,176.61A.41.41,0,0,1,124,176L301.6,316.75a.4.4,0,0,1,.06.58A.42.42,0,0,1,301.34,317.49Z" transform="translate(-65.38 -29.19)"/><path class="cls-12" d="M322.56,302.6h-.11a.39.39,0,0,1-.39-.31C321.73,301,289.34,173,274.33,113c-7.66-30.57-7.66-30.92-7.66-31.09a.41.41,0,0,1,.41-.41.42.42,0,0,1,.42.39c.06.44,1.43,6.18,7.63,30.91,15,60,47.4,188,47.72,189.3A.41.41,0,0,1,322.56,302.6Z" transform="translate(-65.38 -29.19)"/><path class="cls-4" d="M127.24,64.46c-73.67,68.42-30.67,188.6-30.67,188.6s8-30.42,30.3-65.13C124.26,176.29,110.74,110.53,127.24,64.46Z" transform="translate(-65.38 -29.19)"/><path class="cls-4" d="M355.06,92.47S263.22,2.25,170.88,37.26c25.35,2.94,70.66,21.48,110.68,52.3C303.55,87.22,328,87.87,355.06,92.47Z" transform="translate(-65.38 -29.19)"/><path class="cls-10" d="M253.21,94.47a214,214,0,0,1,28.35-4.91c-40-30.82-85.33-49.36-110.68-52.3a131.06,131.06,0,0,0-24.4,12.34,135.83,135.83,0,0,0-19.24,14.86c-16.5,46.07-3,111.83-.37,123.47a243.81,243.81,0,0,1,27.59-35.41C178,127.6,210.12,105,253.21,94.47Z" transform="translate(-65.38 -29.19)"/></g><g id="BODY"><path class="cls-9" d="M378.52,265.86c-4,44.07-19,79.74-31.24,102.29a200,200,0,0,1-16.78,26.54l-.07.09c-87.66,2.24-102.37-61.1-102.37-61.1s27.83-2.56,51.82-46.39,46.71-54.81,46.71-54.81a118.58,118.58,0,0,1,30.07,14.29A119.92,119.92,0,0,1,378.52,265.86Z" transform="translate(-65.38 -29.19)"/><path class="cls-1" d="M357,243.68c-5.67-2.38-14.61,4.16-21.11,17.6a80.85,80.85,0,0,1,17.91-.54s8.1,7.15,11.2,13.44C365,274.18,369.67,249,357,243.68Z" transform="translate(-65.38 -29.19)"/><path class="cls-3" d="M329.9,390.4h0a133,133,0,0,1-45.19-9.58,106.06,106.06,0,0,1-29.15-18c-14.48-12.62-20.23-25-20.29-25.17a.41.41,0,0,1,.21-.54.4.4,0,0,1,.54.2c.06.12,5.75,12.41,20.12,24.92,13.25,11.55,36.82,25.66,73.8,27.3a.42.42,0,0,1,0,.83Z" transform="translate(-65.38 -29.19)"/><path class="cls-13" d="M347.28,368.15a200,200,0,0,1-16.78,26.54c-14.72-12.2-24.5-36.86-24.5-36.86Z" transform="translate(-65.38 -29.19)"/><path class="cls-3" d="M372,304.89h-.1a.41.41,0,0,1-.3-.5,257.53,257.53,0,0,0,6.21-35.27.41.41,0,0,1,.82.09,259.41,259.41,0,0,1-6.23,35.38A.41.41,0,0,1,372,304.89Z" transform="translate(-65.38 -29.19)"/></g><g id="BOX"><polygon class="cls-14" points="256.4 266.75 222.92 326.25 203.3 291.49 236.78 231.98 243.14 243.24 249.4 254.33 256.4 266.75"/><path class="cls-15" d="M314.78,283.52,308.86,294a2,2,0,0,1-3.51,0l-3.36-6a4.1,4.1,0,0,1,0-4l6.54-11.62Z" transform="translate(-65.38 -29.19)"/><polygon class="cls-14" points="298.1 365.92 331.58 306.42 256.4 266.75 222.92 326.25 298.1 365.92"/><path class="cls-16" d="M291.06,350.94a.39.39,0,0,1-.2-.05.4.4,0,0,1-.15-.56l29.34-52.15a.4.4,0,0,1,.56-.15.41.41,0,0,1,.16.56l-29.35,52.14A.39.39,0,0,1,291.06,350.94Z" transform="translate(-65.38 -29.19)"/><path class="cls-15" d="M335.67,327.08l6-10.74a1.84,1.84,0,0,0-.75-2.53l-14.36-7.58a1.84,1.84,0,0,0-2.46.73l-6.05,10.74a1.85,1.85,0,0,0,.75,2.53l14.36,7.58A1.86,1.86,0,0,0,335.67,327.08Z" transform="translate(-65.38 -29.19)"/><polygon class="cls-14" points="236.78 231.98 311.96 271.65 331.58 306.42 256.4 266.75 236.78 231.98"/><polygon class="cls-15" points="243.14 243.24 318.32 282.91 324.58 294 249.4 254.33 243.14 243.24"/><path class="cls-16" d="M393.6,334.24a.45.45,0,0,1-.19-.05L321.6,296.3a.46.46,0,0,1-.17-.17l-15.49-27.45a.4.4,0,0,1,.15-.56.41.41,0,0,1,.56.16l15.44,27.34,71.71,37.84a.41.41,0,0,1-.2.78Z" transform="translate(-65.38 -29.19)"/><path class="cls-15" d="M369,374.5h0a2.61,2.61,0,0,1-3.48,1l-13-6.88a2.59,2.59,0,0,1-1.06-3.56h0a2.6,2.6,0,0,1,3.47-1l12.48,6.59.55.29A2.59,2.59,0,0,1,369,374.5Z" transform="translate(-65.38 -29.19)"/><path class="cls-15" d="M363.85,383.56h0a2.59,2.59,0,0,1-3.47,1l-13-6.88a2.59,2.59,0,0,1-1-3.56h0a2.59,2.59,0,0,1,3.47-1l13,6.88A2.58,2.58,0,0,1,363.85,383.56Z" transform="translate(-65.38 -29.19)"/></g><g id="LEFT_HAND" data-name="LEFT HAND"><path class="cls-3" d="M371.43,297.11s-6.13-7.15-11.36-9.92-18.45-4.59-20.69-4.05,9.6,4.69,9.6,4.69-9.17-2-10.77-.54,11.2,4.27,11.2,4.27-8.43-1.07-9.39.11,11.84,4.48,11.84,4.48-7.25-1.5-8.64.1,14.08,4.59,14.61,4.91,3.42,3.09,6.19,3.73,3.73-.91,3.73-.91Z" transform="translate(-65.38 -29.19)"/><path class="cls-3" d="M417.82,335.81c-3.85,6.5-19.62-.29-35.17-14.94A122.73,122.73,0,0,1,367.75,304l3.68-6.87s10,3.17,20.75,7.17c5,1.88,10.25,4,14.64,6A21.48,21.48,0,0,1,419.3,327,13.71,13.71,0,0,1,417.82,335.81Z" transform="translate(-65.38 -29.19)"/><path class="cls-9" d="M400.38,307.88a8.81,8.81,0,0,1,5.44-.11c3.31.85,20.79,15.78,14.82,27.4s-30.82-.63-30.28-8.42S400.38,307.88,400.38,307.88Z" transform="translate(-65.38 -29.19)"/><path class="cls-3" d="M390.94,324.12l-.12,0a.4.4,0,0,1-.27-.51c2.17-7.34,9.22-15.63,9.52-16a.36.36,0,0,1,.14-.11,9.16,9.16,0,0,1,5.71-.13c1.75.45,6.82,4.34,10.79,9.39a.41.41,0,0,1-.07.58.4.4,0,0,1-.57-.07c-4.1-5.22-9-8.75-10.35-9.1a8.82,8.82,0,0,0-5.09.05c-.73.86-7.28,8.8-9.29,15.6A.43.43,0,0,1,390.94,324.12Z" transform="translate(-65.38 -29.19)"/><path class="cls-1" d="M389.76,327c-2.35-1.85-4.73-3.91-7.11-6.15,10.4-4.67,9.89-14,9.53-16.59,2.82,1.05,5.69,2.16,8.44,3.29a4.21,4.21,0,0,1,2.6,3.44c.47,4.36-.19,11.86-8.75,16.44A4.32,4.32,0,0,1,389.76,327Z" transform="translate(-65.38 -29.19)"/></g><g id="RIGHT_HAND" data-name="RIGHT HAND"><path class="cls-9" d="M326.59,232.48C307.07,227.79,246,254.34,237,269.7s5.81,42.6,11.36,46.87,19.94-2.08,21.43-6.56-6-27.94-6-27.94,29-9.17,44.15-15.36S326.59,232.48,326.59,232.48Z" transform="translate(-65.38 -29.19)"/><path class="cls-3" d="M292.65,272.84a.41.41,0,0,1-.39-.27.42.42,0,0,1,.25-.53c6.26-2.21,11.39-4.13,15.26-5.71,11.94-4.88,16.55-23.48,18-31.25a.41.41,0,1,1,.81.15c-1.45,7.9-6.16,26.83-18.48,31.87-3.88,1.58-9,3.51-15.29,5.72Z" transform="translate(-65.38 -29.19)"/><path class="cls-3" d="M262,282a.43.43,0,0,1-.28-.11c-8-7.38-20.19-7.78-20.32-7.78a.43.43,0,0,1-.4-.43.42.42,0,0,1,.43-.4c.12,0,12.62.42,20.85,8a.42.42,0,0,1-.28.72Z" transform="translate(-65.38 -29.19)"/><path class="cls-3" d="M259.19,282l-.11,0c-9.35-2.7-15.17-1-15.23-1a.4.4,0,0,1-.51-.27.41.41,0,0,1,.27-.52c.24-.07,6.09-1.81,15.7,1a.41.41,0,0,1,.28.51A.42.42,0,0,1,259.19,282Z" transform="translate(-65.38 -29.19)"/><path class="cls-1" d="M248.62,315.41l7.59,11.65s12,.8,16.12-8.05l-4.77-10.92S255.39,305.93,248.62,315.41Z" transform="translate(-65.38 -29.19)"/><path class="cls-3" d="M256.31,325.79l17.17,18.93s8.16,15.83,10.72,17.43,18.39-.16,19.35-1.44-3.41-4.95-6.61-6.23a45.23,45.23,0,0,0-7.25-2l-4.26-6.61s5.54,1,5.86,1.06a27.85,27.85,0,0,0,5.44,1.39c1.39,0,.85-1.81-3.52-4.69S281.69,340,281.69,340l-10.13-20.9S264.63,316.25,256.31,325.79Z" transform="translate(-65.38 -29.19)"/><path class="cls-16" d="M298.06,357.4h0c-3.66-.2-9.2-.49-9.68-.49a.4.4,0,0,1-.42-.22.4.4,0,0,1,.18-.55c.13-.07.2-.1,10,.43a.41.41,0,0,1,.38.44A.41.41,0,0,1,298.06,357.4Z" transform="translate(-65.38 -29.19)"/><path class="cls-16" d="M300,360.52h0l-12.79-.64a.43.43,0,0,1-.4-.44.44.44,0,0,1,.44-.39l12.79.64a.41.41,0,0,1,.39.43A.42.42,0,0,1,300,360.52Z" transform="translate(-65.38 -29.19)"/></g><g id="HAIR_NECK" data-name="HAIR &amp; NECK"><path class="cls-17" d="M396.75,225.13c-2.34,9.06-20.68,15.24-38.6,12-14.51-2.59-11.88-12.24-10.36-15.82v0c.3-.68.55-1.13.62-1.27l0,0s-9.39-5-10.35-7.25,8.32-3.2,8.32-3.2-3.84-2.56-3.73-4.59,13.12-6.08,20.26-5.55c0,0-4.37-7.56-3.84-11.08s6.83-.32,14.93,3.41,16.53,8.74,16,22.39c0,0,6.62,1.4,7.08,7.48A10.74,10.74,0,0,1,396.75,225.13Z" transform="translate(-65.38 -29.19)"/><path class="cls-3" d="M369.78,241.87l-6.15,7.41L360,253.7l-4.79,2.56c-1.6-2.24-2.35-6.71-2.35-6.71l6.75-13.92,1.67-3.47Z" transform="translate(-65.38 -29.19)"/><path class="cls-18" d="M369.78,241.87l-6.15,7.41c-4.2-3.88-4.57-9.46-4.06-13.65l1.67-3.47Z" transform="translate(-65.38 -29.19)"/></g><g id="HEAD"><path class="cls-3" d="M381,211.32c-14.29-8.53-21.43,9.75-21.27,20.31s10.4,20.15,21.75,7.68S390.09,216.75,381,211.32Z" transform="translate(-65.38 -29.19)"/><path class="cls-3" d="M362.74,222.89s-2.35-7.89-7.47-6.62S352.5,229.5,361,228.54Z" transform="translate(-65.38 -29.19)"/><path class="cls-16" d="M359.54,225.48a.4.4,0,0,1-.41-.38,7.11,7.11,0,0,0-4.16-6.36.41.41,0,0,1-.26-.52.42.42,0,0,1,.53-.26c.17.07,4.29,1.56,4.71,7.08a.4.4,0,0,1-.38.44Z" transform="translate(-65.38 -29.19)"/><path class="cls-16" d="M355.5,224.24a.51.51,0,0,1-.17,0,.42.42,0,0,1-.21-.55,7.86,7.86,0,0,1,2.77-3.21.42.42,0,0,1,.57.15.41.41,0,0,1-.15.56,7.05,7.05,0,0,0-2.43,2.84A.42.42,0,0,1,355.5,224.24Z" transform="translate(-65.38 -29.19)"/></g><g id="FACE"><path class="cls-16" d="M376.86,237.16a11.85,11.85,0,0,1-2.32-.26.41.41,0,0,1,.18-.81c1.27.28,3.28.41,3.77-.15.06-.06.22-.25,0-.78a11.75,11.75,0,0,1-.26-6,.41.41,0,0,1,.8.18,11.22,11.22,0,0,0,.23,5.58,1.5,1.5,0,0,1-.16,1.61A3,3,0,0,1,376.86,237.16Z" transform="translate(-65.38 -29.19)"/><path class="cls-16" d="M376.52,224.12s1-2.57.65-3.33-1,.38-1,.38-4.42-3.39-7.43,1.26C368.7,222.43,372.2,220.79,376.52,224.12Z" transform="translate(-65.38 -29.19)"/><path class="cls-16" d="M381.92,226.44s1.08-2.55,1.77-2.93.3.86.3.86,4.48-.18,3.11,5.07C387.1,229.44,386.31,226.24,381.92,226.44Z" transform="translate(-65.38 -29.19)"/><path class="cls-16" d="M368.57,242.2a4.84,4.84,0,0,0,4.88.21,6.4,6.4,0,0,0,1.75-1.27,20.58,20.58,0,0,0-7.53-6,8.29,8.29,0,0,0-.66,1.55C366.5,238.32,366.22,240.79,368.57,242.2Z" transform="translate(-65.38 -29.19)"/><path class="cls-19" d="M367,236.71a14.09,14.09,0,0,1,6.44,5.7,6.4,6.4,0,0,0,1.75-1.27,20.58,20.58,0,0,0-7.53-6A8.29,8.29,0,0,0,367,236.71Z" transform="translate(-65.38 -29.19)"/><ellipse class="cls-16" cx="372.06" cy="227.95" rx="2.64" ry="2.12" transform="translate(-57.78 438.69) rotate(-64.85)"/><circle class="cls-19" cx="307.76" cy="198.62" r="0.73"/><ellipse class="cls-16" cx="382.33" cy="232.31" rx="2.64" ry="2.12" transform="translate(-55.82 450.5) rotate(-64.85)"/><circle class="cls-19" cx="318.04" cy="202.98" r="0.73"/></g><g id="BANG"><path class="cls-17" d="M359.86,220.86c.31.09,16.74,6.93,24.85-6.61s-8.32-13.65-18.24-9.81.85,4.58.85,4.58S350.79,218.19,359.86,220.86Z" transform="translate(-65.38 -29.19)"/></g></svg>