<svg width="885" height="504" viewBox="0 0 885 504" fill="none" xmlns="http://www.w3.org/2000/svg">
<path d="M40.9707 294.453C38.4642 291.947 36.6413 289.554 35.502 287.275C34.5905 284.769 33.9069 282.376 33.4512 280.098C32.9954 277.591 32.9954 275.085 33.4512 272.578C34.3626 269.388 35.7298 266.426 37.5527 263.691C39.1478 261.185 41.3125 258.678 44.0469 256.172C46.7812 253.438 50.4271 250.931 54.9844 248.652C57.9466 241.361 60.5671 233.727 62.8457 225.752C65.3522 217.549 67.5169 210.143 69.3398 203.535C71.3906 195.788 73.2135 188.04 74.8086 180.293C80.5052 160.924 83.4674 145.202 83.6953 133.125C83.9232 120.82 83.6953 112.731 83.0117 108.857C82.7839 107.262 82.556 105.667 82.3281 104.072C81.8724 102.705 81.4167 101.224 80.9609 99.6289C80.7331 97.806 80.3913 96.097 79.9355 94.502C82.4421 93.1348 84.6068 91.9954 86.4297 91.084C88.4805 90.1725 90.1895 89.4889 91.5566 89.0332C93.1517 88.3496 94.6328 87.8939 96 87.666C101.241 86.5267 106.14 85.957 110.697 85.957C115.482 85.7292 118.103 86.5267 118.559 88.3496C118.786 89.4889 119.014 91.5397 119.242 94.502C119.698 97.4642 119.926 101.11 119.926 105.439C119.926 109.769 119.584 114.668 118.9 120.137C118.217 125.378 116.964 130.96 115.141 136.885C113.546 142.126 111.381 149.417 108.646 158.76C106.14 166.735 102.836 177.445 98.7344 190.889C94.6328 204.105 89.278 221.081 82.6699 241.816C89.5059 239.538 97.0254 237.373 105.229 235.322C113.432 233.271 121.749 231.562 130.18 230.195C138.839 228.828 147.383 227.803 155.814 227.119C164.473 226.436 172.449 226.322 179.74 226.777C181.107 226.777 182.019 227.461 182.475 228.828C183.158 229.967 183.158 231.221 182.475 232.588C182.019 233.955 180.766 235.322 178.715 236.689C176.892 237.829 174.158 238.512 170.512 238.74C165.954 239.196 160.941 239.766 155.473 240.449C150.004 240.905 144.307 241.702 138.383 242.842C132.686 243.753 126.99 245.007 121.293 246.602C115.596 247.969 110.242 249.678 105.229 251.729C101.355 253.096 97.4811 254.463 93.6074 255.83C90.4173 256.969 86.9993 258.337 83.3535 259.932C79.9355 261.299 77.0872 262.552 74.8086 263.691L66.9473 288.643C80.1634 297.985 90.3034 307.555 97.3672 317.354C104.659 327.152 109.9 336.152 113.09 344.355C116.964 353.926 119.128 363.268 119.584 372.383C119.584 382.409 118.103 392.435 115.141 402.461C112.178 412.715 108.191 422.399 103.178 431.514C98.3926 440.856 92.696 449.515 86.0879 457.49C79.7077 465.465 72.8717 472.301 65.5801 477.998C58.5163 483.695 51.2246 488.024 43.7051 490.986C36.4134 493.949 29.4635 495.088 22.8555 494.404C18.0703 493.949 14.0827 492.354 10.8926 489.619C7.70247 487.113 5.3099 483.809 3.71484 479.707C2.11979 475.833 1.20833 471.39 0.980469 466.377C0.752604 461.592 1.20833 456.807 2.34766 452.021C3.25911 447.236 5.19596 438.35 8.1582 425.361C10.6647 414.424 14.5384 398.473 19.7793 377.51C25.0202 356.774 32.084 329.089 40.9707 294.453ZM61.1367 310.518C57.9466 321.911 55.0983 332.393 52.5918 341.963C50.3132 351.533 48.3763 359.964 46.7812 367.256C44.7305 375.687 43.1354 383.32 41.9961 390.156C39.9453 398.815 37.7806 407.36 35.502 415.791C33.4512 424.222 31.8561 431.742 30.7168 438.35C29.3496 445.186 28.7799 450.654 29.0078 454.756C29.2357 458.857 30.7168 460.908 33.4512 460.908C40.0592 461.364 46.8952 458.743 53.959 453.047C61.2507 447.578 67.8587 440.514 73.7832 431.855C79.7077 423.424 84.6068 414.196 88.4805 404.17C92.3542 394.372 94.291 385.257 94.291 376.826C94.291 367.484 92.8099 358.255 89.8477 349.141C87.7969 344.355 85.4043 339.684 82.6699 335.127C80.1634 331.253 77.0872 327.152 73.4414 322.822C70.0234 318.265 65.9219 314.163 61.1367 310.518ZM532.133 264.717C530.993 271.781 529.854 278.503 528.715 284.883C527.803 291.263 527.234 296.39 527.006 300.264C526.778 305.96 527.803 310.062 530.082 312.568C532.361 315.075 534.867 316.328 537.602 316.328C540.792 316.328 544.665 314.733 549.223 311.543C554.008 308.353 559.021 304.365 564.262 299.58C569.503 294.795 574.743 289.554 579.984 283.857C585.225 278.161 590.01 272.806 594.34 267.793C598.897 262.552 602.657 257.995 605.619 254.121C608.809 250.247 610.974 247.741 612.113 246.602C613.48 245.234 614.848 244.437 616.215 244.209C617.81 243.981 619.063 244.209 619.975 244.893C620.886 245.576 621.342 246.829 621.342 248.652C621.342 250.475 620.43 252.754 618.607 255.488C615.873 259.818 612.341 264.945 608.012 270.869C603.682 276.566 598.897 282.49 593.656 288.643C588.415 294.795 582.833 300.833 576.908 306.758C571.212 312.682 565.401 317.923 559.477 322.48C553.78 327.038 548.197 330.684 542.729 333.418C537.488 336.38 532.702 337.861 528.373 337.861C525.183 337.861 522.107 336.95 519.145 335.127C516.41 333.304 513.904 330.911 511.625 327.949C509.346 324.987 507.523 321.683 506.156 318.037C505.017 314.391 504.561 310.745 504.789 307.1C505.017 305.505 505.359 302.77 505.814 298.896C496.244 309.606 486.56 318.151 476.762 324.531C467.191 330.684 457.963 333.76 449.076 333.76C445.886 333.76 442.468 332.962 438.822 331.367C435.176 329.772 431.872 327.152 428.91 323.506C426.176 319.86 423.897 315.075 422.074 309.15C420.251 303.226 419.568 296.048 420.023 287.617C420.707 274.401 423.327 261.868 427.885 250.02C432.442 238.171 438.139 227.917 444.975 219.258C452.038 210.371 459.9 203.421 468.559 198.408C477.445 193.167 486.332 190.547 495.219 190.547C499.092 190.547 502.624 191.572 505.814 193.623C509.005 195.446 511.739 197.952 514.018 201.143C516.296 204.105 518.119 207.409 519.486 211.055C521.081 214.701 522.221 218.118 522.904 221.309C524.499 214.701 525.98 208.206 527.348 201.826C528.715 195.446 530.082 189.408 531.449 183.711C533.728 175.28 536.12 166.165 538.627 156.367C540.906 147.936 543.526 138.252 546.488 127.314C549.451 116.377 552.755 104.87 556.4 92.793C558.679 90.9701 560.844 89.6029 562.895 88.6914C564.945 87.7799 566.882 87.0964 568.705 86.6406C570.756 85.957 572.693 85.6152 574.516 85.6152C576.794 85.6152 578.845 85.957 580.668 86.6406C582.491 87.0964 583.972 88.5775 585.111 91.084C586.479 93.3626 587.39 96.8945 587.846 101.68C588.301 106.465 588.301 112.959 587.846 121.162C587.39 131.188 585.567 142.126 582.377 153.975C579.415 165.824 575.427 178.128 570.414 190.889C565.401 203.421 559.59 216.068 552.982 228.828C546.602 241.361 539.652 253.324 532.133 264.717ZM511.967 269.16C512.878 264.831 513.676 260.501 514.359 256.172C515.271 251.842 516.296 247.399 517.436 242.842C516.98 243.07 516.524 243.298 516.068 243.525C515.84 243.753 515.499 243.981 515.043 244.209C512.536 245.348 510.827 245.348 509.916 244.209C509.005 242.842 508.549 240.791 508.549 238.057C508.549 236.689 508.435 234.297 508.207 230.879C507.979 227.233 507.296 223.587 506.156 219.941C505.245 216.068 503.764 212.764 501.713 210.029C499.662 207.067 496.814 205.586 493.168 205.586C487.927 205.586 482.572 208.32 477.104 213.789C471.635 219.03 466.508 225.524 461.723 233.271C456.938 240.791 452.95 248.88 449.76 257.539C446.57 266.198 444.747 273.945 444.291 280.781C443.835 291.719 445.202 299.58 448.393 304.365C451.583 309.15 455.912 311.543 461.381 311.543C465.482 311.543 469.926 309.948 474.711 306.758C479.724 303.568 484.509 299.694 489.066 295.137C493.852 290.579 498.181 285.908 502.055 281.123C506.156 276.338 509.46 272.35 511.967 269.16ZM701.322 264.717C700.183 271.781 699.044 278.503 697.904 284.883C696.993 291.263 696.423 296.39 696.195 300.264C695.967 305.96 696.993 310.062 699.271 312.568C701.55 315.075 704.057 316.328 706.791 316.328C709.981 316.328 713.855 314.733 718.412 311.543C723.197 308.353 728.21 304.365 733.451 299.58C738.692 294.795 743.933 289.554 749.174 283.857C754.415 278.161 759.2 272.806 763.529 267.793C768.087 262.552 771.846 257.995 774.809 254.121C777.999 250.247 780.163 247.741 781.303 246.602C782.67 245.234 784.037 244.437 785.404 244.209C786.999 243.981 788.253 244.209 789.164 244.893C790.076 245.576 790.531 246.829 790.531 248.652C790.531 250.475 789.62 252.754 787.797 255.488C785.062 259.818 781.531 264.945 777.201 270.869C772.872 276.566 768.087 282.49 762.846 288.643C757.605 294.795 752.022 300.833 746.098 306.758C740.401 312.682 734.59 317.923 728.666 322.48C722.969 327.038 717.387 330.684 711.918 333.418C706.677 336.38 701.892 337.861 697.562 337.861C694.372 337.861 691.296 336.95 688.334 335.127C685.6 333.304 683.093 330.911 680.814 327.949C678.536 324.987 676.713 321.683 675.346 318.037C674.206 314.391 673.751 310.745 673.979 307.1C674.206 305.505 674.548 302.77 675.004 298.896C665.434 309.606 655.749 318.151 645.951 324.531C636.381 330.684 627.152 333.76 618.266 333.76C615.076 333.76 611.658 332.962 608.012 331.367C604.366 329.772 601.062 327.152 598.1 323.506C595.365 319.86 593.087 315.075 591.264 309.15C589.441 303.226 588.757 296.048 589.213 287.617C589.896 274.401 592.517 261.868 597.074 250.02C601.632 238.171 607.328 227.917 614.164 219.258C621.228 210.371 629.089 203.421 637.748 198.408C646.635 193.167 655.521 190.547 664.408 190.547C668.282 190.547 671.814 191.572 675.004 193.623C678.194 195.446 680.928 197.952 683.207 201.143C685.486 204.105 687.309 207.409 688.676 211.055C690.271 214.701 691.41 218.118 692.094 221.309C693.689 214.701 695.17 208.206 696.537 201.826C697.904 195.446 699.271 189.408 700.639 183.711C702.917 175.28 705.31 166.165 707.816 156.367C710.095 147.936 712.715 138.252 715.678 127.314C718.64 116.377 721.944 104.87 725.59 92.793C727.868 90.9701 730.033 89.6029 732.084 88.6914C734.135 87.7799 736.072 87.0964 737.895 86.6406C739.945 85.957 741.882 85.6152 743.705 85.6152C745.984 85.6152 748.035 85.957 749.857 86.6406C751.68 87.0964 753.161 88.5775 754.301 91.084C755.668 93.3626 756.579 96.8945 757.035 101.68C757.491 106.465 757.491 112.959 757.035 121.162C756.579 131.188 754.757 142.126 751.566 153.975C748.604 165.824 744.617 178.128 739.604 190.889C734.59 203.421 728.78 216.068 722.172 228.828C715.792 241.361 708.842 253.324 701.322 264.717ZM681.156 269.16C682.068 264.831 682.865 260.501 683.549 256.172C684.46 251.842 685.486 247.399 686.625 242.842C686.169 243.07 685.714 243.298 685.258 243.525C685.03 243.753 684.688 243.981 684.232 244.209C681.726 245.348 680.017 245.348 679.105 244.209C678.194 242.842 677.738 240.791 677.738 238.057C677.738 236.689 677.624 234.297 677.396 230.879C677.169 227.233 676.485 223.587 675.346 219.941C674.434 216.068 672.953 212.764 670.902 210.029C668.852 207.067 666.003 205.586 662.357 205.586C657.117 205.586 651.762 208.32 646.293 213.789C640.824 219.03 635.697 225.524 630.912 233.271C626.127 240.791 622.139 248.88 618.949 257.539C615.759 266.198 613.936 273.945 613.48 280.781C613.025 291.719 614.392 299.58 617.582 304.365C620.772 309.15 625.102 311.543 630.57 311.543C634.672 311.543 639.115 309.948 643.9 306.758C648.913 303.568 653.699 299.694 658.256 295.137C663.041 290.579 667.37 285.908 671.244 281.123C675.346 276.338 678.65 272.35 681.156 269.16ZM837.016 128.682C836.332 131.188 834.965 133.695 832.914 136.201C831.091 138.48 828.926 140.417 826.42 142.012C824.141 143.379 821.749 144.29 819.242 144.746C816.736 145.202 814.685 144.746 813.09 143.379C808.305 139.733 805.798 135.859 805.57 131.758C805.342 127.428 806.368 123.441 808.646 119.795C810.925 115.921 813.773 112.731 817.191 110.225C820.609 107.49 823.572 105.895 826.078 105.439C828.585 104.984 830.635 105.553 832.23 107.148C834.053 108.516 835.421 110.452 836.332 112.959C837.243 115.238 837.699 117.858 837.699 120.82C837.927 123.783 837.699 126.403 837.016 128.682ZM789.848 201.484C790.987 200.117 793.152 198.978 796.342 198.066C799.532 197.155 802.836 196.471 806.254 196.016C809.672 195.332 812.748 194.99 815.482 194.99C818.445 194.762 820.154 194.762 820.609 194.99C820.837 195.218 820.268 197.611 818.9 202.168C817.533 206.725 815.824 212.08 813.773 218.232C811.723 224.385 809.558 230.765 807.279 237.373C805.001 243.753 803.292 248.994 802.152 253.096C801.013 257.197 799.646 261.868 798.051 267.109C796.456 272.122 794.975 277.135 793.607 282.148C792.468 286.934 791.671 291.491 791.215 295.82C790.759 300.15 791.101 303.454 792.24 305.732C793.38 308.467 794.633 310.404 796 311.543C797.367 312.454 798.848 312.91 800.443 312.91C805.001 312.91 810.697 310.404 817.533 305.391C824.597 300.378 831.661 294.453 838.725 287.617C846.016 280.553 852.738 273.49 858.891 266.426C865.043 259.134 869.6 253.324 872.562 248.994C874.385 246.715 876.208 245.234 878.031 244.551C880.082 243.867 881.677 243.981 882.816 244.893C884.184 245.804 884.867 247.285 884.867 249.336C885.095 251.387 884.411 253.779 882.816 256.514C879.171 262.894 873.816 270.527 866.752 279.414C859.688 288.073 852.169 296.504 844.193 304.707C836.218 312.682 828.357 319.518 820.609 325.215C813.09 330.911 806.938 333.874 802.152 334.102C798.279 334.329 794.405 333.646 790.531 332.051C786.885 330.684 783.467 328.747 780.277 326.24C777.315 323.506 774.809 320.43 772.758 317.012C770.707 313.366 769.568 309.606 769.34 305.732C768.656 300.036 768.656 292.288 769.34 282.49C770.023 272.464 771.277 262.324 773.1 252.07C774.923 241.589 777.201 231.676 779.936 222.334C782.898 212.992 786.202 206.042 789.848 201.484Z" fill="white"/>
<path d="M249.125 275.654C246.846 284.313 243.77 292.402 239.896 299.922C236.023 307.441 231.352 313.936 225.883 319.404C220.642 324.873 214.604 329.089 207.768 332.051C201.16 335.241 193.868 336.836 185.893 336.836C176.55 336.836 169.145 334.785 163.676 330.684C158.435 326.81 154.447 321.911 151.713 315.986C149.206 310.062 147.725 303.568 147.27 296.504C146.586 289.44 146.244 282.832 146.244 276.68C146.244 272.35 146.814 267.565 147.953 262.324C148.865 257.083 150.232 251.729 152.055 246.26C153.878 240.791 156.156 235.322 158.891 229.854C161.853 224.385 165.271 219.372 169.145 214.814C170.512 210.941 172.562 207.523 175.297 204.561C178.259 201.598 181.563 199.206 185.209 197.383C189.083 195.332 193.184 193.851 197.514 192.939C201.843 191.8 206.059 191.23 210.16 191.23C210.844 191.23 211.413 191.344 211.869 191.572C212.553 191.8 213.236 192.028 213.92 192.256C216.882 192.484 220.528 193.623 224.857 195.674C229.415 197.725 233.744 200.801 237.846 204.902C242.175 209.004 245.821 214.245 248.783 220.625C251.745 226.777 253.227 234.297 253.227 243.184C253.227 245.007 253.113 247.285 252.885 250.02C252.657 252.526 252.429 254.691 252.201 256.514C257.442 254.463 262.911 251.956 268.607 248.994C274.304 246.032 279.773 242.956 285.014 239.766C290.482 236.348 295.495 232.93 300.053 229.512C304.61 226.094 308.256 223.018 310.99 220.283C313.269 218.232 315.206 217.093 316.801 216.865C318.396 216.637 319.535 217.093 320.219 218.232C320.902 219.372 321.016 220.967 320.561 223.018C320.105 225.068 318.852 227.347 316.801 229.854C315.661 231.221 312.699 233.955 307.914 238.057C303.357 242.158 297.888 246.602 291.508 251.387C285.128 256.172 278.178 260.843 270.658 265.4C263.139 269.958 255.961 273.376 249.125 275.654ZM191.361 223.701C190.678 225.752 190.336 227.917 190.336 230.195C190.336 233.841 190.564 237.715 191.02 241.816C191.475 245.69 192.615 249.222 194.438 252.412C196.26 255.602 199.109 258.337 202.982 260.615C207.084 262.666 212.667 263.691 219.73 263.691C220.87 263.691 222.009 263.691 223.148 263.691C224.288 263.464 225.427 263.236 226.566 263.008C227.25 260.046 227.82 257.425 228.275 255.146C228.959 252.64 229.301 250.475 229.301 248.652C229.757 244.323 229.757 239.88 229.301 235.322C228.845 230.765 227.934 226.663 226.566 223.018C225.427 219.144 223.832 216.068 221.781 213.789C219.958 211.283 217.68 210.029 214.945 210.029C210.616 210.029 206.4 211.283 202.299 213.789C198.425 216.068 194.779 219.372 191.361 223.701ZM169.486 283.857C169.486 287.959 169.714 292.061 170.17 296.162C170.626 300.036 171.537 303.568 172.904 306.758C174.271 309.72 176.094 312.227 178.373 314.277C180.652 316.1 183.614 317.012 187.26 317.012C191.361 317.012 195.121 316.1 198.539 314.277C201.957 312.227 205.033 309.72 207.768 306.758C210.502 303.568 212.895 300.036 214.945 296.162C217.224 292.061 219.161 287.845 220.756 283.516C219.161 283.743 217.566 283.971 215.971 284.199C214.604 284.199 213.008 284.199 211.186 284.199C202.527 284.199 195.007 281.693 188.627 276.68C182.475 271.439 177.689 264.831 174.271 256.855C172.904 261.641 171.765 266.312 170.854 270.869C169.942 275.426 169.486 279.756 169.486 283.857ZM386.869 275.654C384.59 284.313 381.514 292.402 377.641 299.922C373.767 307.441 369.096 313.936 363.627 319.404C358.386 324.873 352.348 329.089 345.512 332.051C338.904 335.241 331.612 336.836 323.637 336.836C314.294 336.836 306.889 334.785 301.42 330.684C296.179 326.81 292.191 321.911 289.457 315.986C286.951 310.062 285.469 303.568 285.014 296.504C284.33 289.44 283.988 282.832 283.988 276.68C283.988 272.35 284.558 267.565 285.697 262.324C286.609 257.083 287.976 251.729 289.799 246.26C291.622 240.791 293.9 235.322 296.635 229.854C299.597 224.385 303.015 219.372 306.889 214.814C308.256 210.941 310.307 207.523 313.041 204.561C316.003 201.598 319.307 199.206 322.953 197.383C326.827 195.332 330.928 193.851 335.258 192.939C339.587 191.8 343.803 191.23 347.904 191.23C348.588 191.23 349.158 191.344 349.613 191.572C350.297 191.8 350.98 192.028 351.664 192.256C354.626 192.484 358.272 193.623 362.602 195.674C367.159 197.725 371.488 200.801 375.59 204.902C379.919 209.004 383.565 214.245 386.527 220.625C389.49 226.777 390.971 234.297 390.971 243.184C390.971 245.007 390.857 247.285 390.629 250.02C390.401 252.526 390.173 254.691 389.945 256.514C395.186 254.463 400.655 251.956 406.352 248.994C412.048 246.032 417.517 242.956 422.758 239.766C428.227 236.348 433.24 232.93 437.797 229.512C442.354 226.094 446 223.018 448.734 220.283C451.013 218.232 452.95 217.093 454.545 216.865C456.14 216.637 457.279 217.093 457.963 218.232C458.646 219.372 458.76 220.967 458.305 223.018C457.849 225.068 456.596 227.347 454.545 229.854C453.406 231.221 450.443 233.955 445.658 238.057C441.101 242.158 435.632 246.602 429.252 251.387C422.872 256.172 415.922 260.843 408.402 265.4C400.883 269.958 393.705 273.376 386.869 275.654ZM329.105 223.701C328.422 225.752 328.08 227.917 328.08 230.195C328.08 233.841 328.308 237.715 328.764 241.816C329.219 245.69 330.359 249.222 332.182 252.412C334.005 255.602 336.853 258.337 340.727 260.615C344.828 262.666 350.411 263.691 357.475 263.691C358.614 263.691 359.753 263.691 360.893 263.691C362.032 263.464 363.171 263.236 364.311 263.008C364.994 260.046 365.564 257.425 366.02 255.146C366.703 252.64 367.045 250.475 367.045 248.652C367.501 244.323 367.501 239.88 367.045 235.322C366.589 230.765 365.678 226.663 364.311 223.018C363.171 219.144 361.576 216.068 359.525 213.789C357.702 211.283 355.424 210.029 352.689 210.029C348.36 210.029 344.145 211.283 340.043 213.789C336.169 216.068 332.523 219.372 329.105 223.701ZM307.23 283.857C307.23 287.959 307.458 292.061 307.914 296.162C308.37 300.036 309.281 303.568 310.648 306.758C312.016 309.72 313.839 312.227 316.117 314.277C318.396 316.1 321.358 317.012 325.004 317.012C329.105 317.012 332.865 316.1 336.283 314.277C339.701 312.227 342.777 309.72 345.512 306.758C348.246 303.568 350.639 300.036 352.689 296.162C354.968 292.061 356.905 287.845 358.5 283.516C356.905 283.743 355.31 283.971 353.715 284.199C352.348 284.199 350.753 284.199 348.93 284.199C340.271 284.199 332.751 281.693 326.371 276.68C320.219 271.439 315.434 264.831 312.016 256.855C310.648 261.641 309.509 266.312 308.598 270.869C307.686 275.426 307.23 279.756 307.23 283.857Z" fill="#D70202"/>
<path d="M162.158 378.624C166.123 380.484 170.475 382.003 175.213 383.183C179.888 384.212 184.756 385.072 189.818 385.762C195.029 386.388 200.22 386.758 205.392 386.872C210.563 386.985 215.521 387.012 220.266 386.952C231.508 386.799 243.054 385.899 254.903 384.253C272.08 381.418 288.052 378.031 302.82 374.093C309.197 372.46 315.555 370.571 321.893 368.425C328.443 366.366 334.568 364.134 340.266 361.728C345.963 359.323 351.128 356.7 355.76 353.861C360.541 350.959 364.308 347.955 367.061 344.85L384.679 341.387C383.886 345.785 380.78 350.983 375.362 356.981C370.158 363.065 362.335 369.017 351.896 374.838C341.67 380.746 328.743 386.115 313.116 390.947C297.551 395.928 279.088 399.483 257.726 401.612C230.184 404.584 206.569 404.307 186.883 400.781C167.411 397.342 153.426 390.791 144.93 381.128L162.158 378.624Z" fill="#D70202"/>
</svg>
